<svg width="18" height="18" viewBox="0 0 18 18" fill="none" xmlns="http://www.w3.org/2000/svg">
<g clip-path="url(#clip0_136_9862)">
<path d="M3.25547 0.738281C2.13047 0.738281 1.00407 1.58203 1.00407 3.26953L3.25547 7.76953L5.50548 3.26953C5.50548 1.58203 4.38047 0.738281 3.25547 0.738281ZM13.1801 2.10938C12.9375 2.11957 12.702 2.16562 12.5051 2.20781L12.6387 2.82656C12.8356 2.78262 13.0395 2.75484 13.2117 2.74219L13.1801 2.10938ZM3.25547 2.14453C3.87774 2.14453 4.38047 2.64832 4.38047 3.26953C4.38047 3.8918 3.87774 4.39453 3.25547 4.39453C2.63426 4.39453 2.13047 3.8918 2.13047 3.26953C2.13047 2.64832 2.63426 2.14453 3.25547 2.14453ZM13.8797 2.15156L13.7742 2.77383C13.9465 2.81004 14.1188 2.85539 14.2699 2.94609L14.5758 2.39062C14.3613 2.27637 14.1223 2.17371 13.8797 2.15156ZM11.8582 2.38711C11.6438 2.47078 11.4293 2.54566 11.2465 2.61914L11.4961 3.19922C11.6895 3.11695 11.8934 3.04523 12.0656 2.98477L11.8582 2.38711ZM15.1524 2.8582L14.6707 3.26953C14.7973 3.41438 14.8957 3.59297 14.9731 3.73711L15.5391 3.45234C15.4195 3.22207 15.3141 3.0477 15.1524 2.8582ZM10.6594 2.88984C10.4449 2.99918 10.2691 3.09656 10.0793 3.19219L10.3887 3.74766C10.5715 3.64219 10.7719 3.54023 10.9336 3.45938L10.6594 2.88984ZM9.52383 3.51914C9.33751 3.62812 9.15469 3.73711 8.9754 3.85664L9.31993 4.38398C9.49219 4.27148 9.67149 4.16602 9.84727 4.06055L9.52383 3.51914ZM15.757 4.14844C15.5496 4.18359 15.3387 4.2082 15.1313 4.23281C15.1453 4.40859 15.1348 4.59844 15.0996 4.74609L15.7149 4.89023C15.75 4.63711 15.7816 4.37695 15.757 4.14844ZM8.44102 4.2082C8.26524 4.32773 8.09298 4.45078 7.91719 4.57031L8.28282 5.08711C8.45157 4.96406 8.62383 4.84805 8.7961 4.72852L8.44102 4.2082ZM7.4004 4.95C7.22462 5.07656 7.0418 5.21719 6.89063 5.3332L7.27383 5.83594C7.46719 5.69531 7.60079 5.58984 7.77657 5.45977L7.4004 4.95ZM14.8887 5.23125C14.7832 5.39297 14.6602 5.55469 14.5371 5.67773L14.9977 6.11719C15.1488 5.93789 15.3106 5.75508 15.4231 5.57227L14.8887 5.23125ZM6.3879 5.72695C6.21563 5.86055 6.04337 5.99766 5.89219 6.12422L6.29297 6.61289C6.45821 6.47578 6.62696 6.33516 6.78165 6.22266L6.3879 5.72695ZM14.1012 6.08203C13.9395 6.21211 13.7707 6.33867 13.616 6.44414L13.9781 6.96445C14.1645 6.83789 14.3473 6.70078 14.5055 6.57422L14.1012 6.08203ZM5.40352 6.53555C5.23829 6.66914 5.08008 6.80977 4.91837 6.94688L5.32969 7.42852C5.4879 7.29141 5.6461 7.1543 5.80782 7.0207L5.40352 6.53555ZM13.0992 6.78164C12.9199 6.88711 12.7336 6.99609 12.5648 7.0875L12.8672 7.64648C13.057 7.53047 13.2715 7.42852 13.4297 7.32305L13.0992 6.78164ZM4.43672 7.36523C4.27852 7.50586 4.12383 7.64648 3.96563 7.79063L4.39102 8.26172C4.54571 8.12109 4.70391 7.98047 4.8586 7.83984L4.43672 7.36523ZM12.0129 7.3793C11.8266 7.4707 11.6402 7.56563 11.4539 7.65703L11.7246 8.22656C11.9426 8.12109 12.1043 8.0332 12.3012 7.9418L12.0129 7.3793ZM10.8879 7.9207C10.6945 8.00859 10.5082 8.09297 10.3113 8.17383L10.568 8.75391C10.7613 8.66953 10.9547 8.58164 11.1481 8.49375L10.8879 7.9207ZM3.50157 8.22656C3.32227 8.38477 3.19747 8.50781 3.03399 8.66602L3.48047 9.12305C3.64571 8.96484 3.7793 8.82773 3.93399 8.69414L3.50157 8.22656ZM9.73477 8.43047C9.54141 8.51133 9.34805 8.5957 9.15469 8.67656L9.40079 9.26367C9.59766 9.18281 9.79102 9.09844 9.98438 9.01406L9.73477 8.43047ZM8.5711 8.92266C8.37774 9.00703 8.18438 9.09141 7.98751 9.16875L8.2336 9.75586C8.42696 9.675 8.62383 9.59062 8.81719 9.50977L8.5711 8.92266ZM15.068 9.17578C13.943 9.17578 12.818 10.0195 12.818 11.707L15.068 16.207L17.318 11.707C17.318 10.0195 16.193 9.17578 15.068 9.17578ZM7.40391 9.41484C7.20352 9.50625 6.99258 9.59062 6.82032 9.66445L7.06993 10.248C7.27735 10.1602 7.47423 10.0758 7.65001 9.99844L7.40391 9.41484ZM6.23672 9.91406C6.04688 10.002 5.8254 10.1004 5.65665 10.1777L5.9168 10.7543C6.12423 10.6629 6.30704 10.5715 6.48985 10.4941L6.23672 9.91406ZM5.07657 10.4414C4.87969 10.5363 4.67579 10.6348 4.50001 10.7227L4.78477 11.2887C4.97462 11.1902 5.17149 11.0988 5.34376 11.0145L5.07657 10.4414ZM15.068 10.582C15.6902 10.582 16.193 11.0848 16.193 11.707C16.193 12.3293 15.6902 12.832 15.068 12.832C14.4457 12.832 13.943 12.3293 13.943 11.707C13.943 11.0848 14.4457 10.582 15.068 10.582ZM3.93047 11.0145C3.74415 11.1164 3.55782 11.2219 3.36797 11.3309L3.68438 11.8793C3.86368 11.7738 4.04649 11.6754 4.2293 11.577L3.93047 11.0145ZM2.81602 11.6719C2.6188 11.7844 2.42825 11.9355 2.26407 12.0445L2.64727 12.5508C2.822 12.4242 3.01008 12.2941 3.16055 12.2027L2.81602 11.6719ZM1.76485 12.4664C1.5961 12.6211 1.42981 12.8004 1.30079 12.9516L1.78243 13.3629C1.91778 13.1977 2.03555 13.0746 2.19376 12.934L1.76485 12.4664ZM9.42188 12.5121L9.47813 13.1414C9.66094 13.1098 9.84376 13.1309 10.0266 13.159L10.1356 12.5367C9.90352 12.5016 9.65743 12.477 9.42188 12.5121ZM8.11407 12.8637L8.35313 13.4508C8.53594 13.3699 8.72579 13.3066 8.91915 13.2469C8.85235 13.0465 8.80313 12.8426 8.7504 12.6387C8.52891 12.702 8.30743 12.7863 8.11407 12.8637ZM10.8387 12.832L10.4801 13.3523C10.6277 13.4613 10.7719 13.5773 10.8879 13.7215L11.366 13.3066C11.1867 13.1238 11.0496 12.9516 10.8387 12.832ZM7.51641 13.1484C7.32305 13.2469 7.13672 13.3594 6.9504 13.4684L7.27032 14.0133C7.45313 13.9148 7.63243 13.7988 7.81173 13.7039L7.51641 13.1484ZM0.91442 13.5352C0.808248 13.7637 0.722115 14.0098 0.682037 14.2277L1.3043 14.3367C1.34227 14.1363 1.39676 13.9922 1.47657 13.8199C1.28356 13.7355 1.09934 13.6336 0.91442 13.5352ZM6.40196 13.8094C6.22266 13.9254 6.04688 14.0414 5.8711 14.1609L6.22266 14.6883C6.39844 14.5723 6.57071 14.4527 6.74649 14.3367L6.40196 13.8094ZM11.7703 13.8516L11.2395 14.1961C11.352 14.3648 11.4609 14.5406 11.5629 14.7199L12.1113 14.4035C11.9883 14.2066 11.9004 14.0309 11.7703 13.8516ZM5.34727 14.5195C5.17149 14.6355 4.99571 14.748 4.82344 14.8711L5.17501 15.3984C5.34376 15.2754 5.52305 15.1594 5.70235 15.0398L5.34727 14.5195ZM1.31133 14.8535C1.10778 14.8957 0.902467 14.9309 0.697858 14.9695C0.734772 15.2156 0.833561 15.4547 0.922858 15.6445L1.49415 15.3703C1.41786 15.1945 1.34544 15.0117 1.31133 14.8535ZM12.4242 14.952L11.8758 15.2684C11.9848 15.4582 12.1113 15.6621 12.2133 15.8238L12.7441 15.4828C12.6246 15.2965 12.5227 15.1207 12.4242 14.952ZM4.30313 15.2156C4.12735 15.3246 3.95508 15.4301 3.77227 15.532L4.08516 16.084C4.27149 15.975 4.45782 15.866 4.63712 15.75L4.30313 15.2156ZM1.79649 15.7887L1.36407 16.2527C1.55954 16.4391 1.80071 16.5621 2.06368 16.6184L2.2043 16.0031C2.04821 15.9715 1.90231 15.8941 1.79649 15.7887ZM3.2379 15.7992C3.06176 15.8801 2.87895 15.9434 2.68946 15.982L2.8336 16.6008C3.0593 16.5551 3.27165 16.4707 3.48399 16.3828L3.2379 15.7992ZM13.0922 15.968L12.6035 16.3652C12.7547 16.5516 12.941 16.7309 13.1027 16.8574L13.493 16.3582C13.3383 16.2387 13.2047 16.0945 13.0922 15.968ZM13.9395 16.5832L13.7813 17.1984C14.059 17.2547 14.2664 17.2723 14.5266 17.2441L14.4492 16.6148C14.277 16.643 14.1082 16.6254 13.9395 16.5832Z" fill="#F1EA28"/>
</g>
<defs>
<clipPath id="clip0_136_9862">
<rect width="18" height="18" fill="#F1EA28"/>
</clipPath>
</defs>
</svg>
