<svg width="14" height="17" viewBox="0 0 14 17" fill="none" xmlns="http://www.w3.org/2000/svg">
<path d="M6.8891 0.5C8.67931 0.5 10.3962 1.21116 11.6621 2.47703C12.9279 3.7429 13.6391 5.45979 13.6391 7.25C13.6391 9.5555 12.3821 11.4425 11.0576 12.7963C10.3959 13.4653 9.67379 14.0719 8.9006 14.6083L8.5811 14.8258L8.4311 14.9255L8.14835 15.1055L7.89635 15.2593L7.58435 15.4408C7.37257 15.5616 7.13294 15.6252 6.8891 15.6252C6.64525 15.6252 6.40562 15.5616 6.19385 15.4408L5.88185 15.2593L5.49185 15.0192L5.34785 14.9255L5.04035 14.7208C4.20622 14.1564 3.42928 13.5118 2.7206 12.7963C1.3961 11.4418 0.139099 9.5555 0.139099 7.25C0.139099 5.45979 0.850258 3.7429 2.11613 2.47703C3.382 1.21116 5.09889 0.5 6.8891 0.5ZM6.8891 5C6.59363 5 6.30104 5.0582 6.02806 5.17127C5.75508 5.28434 5.50704 5.45008 5.29811 5.65901C5.08918 5.86794 4.92344 6.11598 4.81037 6.38896C4.6973 6.66194 4.6391 6.95453 4.6391 7.25C4.6391 7.54547 4.6973 7.83806 4.81037 8.11104C4.92344 8.38402 5.08918 8.63206 5.29811 8.84099C5.50704 9.04992 5.75508 9.21566 6.02806 9.32873C6.30104 9.4418 6.59363 9.5 6.8891 9.5C7.48584 9.5 8.05813 9.26295 8.48009 8.84099C8.90205 8.41903 9.1391 7.84674 9.1391 7.25C9.1391 6.65326 8.90205 6.08097 8.48009 5.65901C8.05813 5.23705 7.48584 5 6.8891 5Z" fill="#F1EA28"/>
</svg>
