<svg width="11" height="14" viewBox="0 0 11 14" fill="none" xmlns="http://www.w3.org/2000/svg">
<path d="M2.21198 1.00625V2.49375L1.76026 2.42919C1.37295 2.37382 1.08907 2.08657 1.08907 1.75C1.08907 1.41512 1.37101 1.12645 1.76026 1.07081L2.21198 1.00625ZM8.16663 0.933241V2.56676C8.16663 3.08161 7.6795 3.5 7.07784 3.5C6.91866 3.5 6.78116 3.59461 6.74671 3.72777L6.29531 5.46875H4.59371L4.14231 3.72777C4.10843 3.59707 3.97356 3.5 3.81118 3.5C3.20985 3.5 2.7224 3.08218 2.7224 2.56676V0.933241C2.7224 0.417812 3.20985 0 3.81118 0H7.07784C7.67918 0 8.16663 0.417812 8.16663 0.933241ZM6.26118 6.34374V7.69999C6.26118 8.08663 5.89559 8.39999 5.44451 8.39999C4.99343 8.39999 4.62785 8.08666 4.62785 7.69999V6.34374H6.26118ZM7.65621 10.8489C7.65621 11.189 7.3342 11.4625 6.94035 11.4625H3.94867C3.55374 11.4625 3.23281 11.1871 3.23281 10.8489C3.23281 10.7517 3.19887 10.9118 3.83447 8.46042C4.52784 9.54271 6.35181 9.54889 7.05424 8.45878C7.69069 10.9139 7.65621 10.7519 7.65621 10.8489Z" fill="#F1EA28"/>
<path d="M10.8889 8.86676V12.1332C10.8889 13.1644 9.91404 14 8.71105 14H2.17772C0.974737 14 -0.00015831 13.1644 -0.00015831 12.1332V8.86676C-0.00015831 7.83562 0.974737 7 2.17772 7H3.38007C3.17782 7.23926 3.03459 7.51215 2.95866 7.80527C2.2035 10.7179 2.21186 10.6168 2.21186 10.8489C2.21186 11.6698 2.99088 12.3375 3.94855 12.3375H6.94023C7.89997 12.3375 8.67692 11.6713 8.67692 10.8489C8.67692 10.6236 8.7003 10.7745 7.93012 7.80527C7.85419 7.51187 7.71096 7.23926 7.50838 7H8.71105C9.91404 7 10.8889 7.83562 10.8889 8.86676Z" fill="#F1EA28"/>
</svg>
